<svg width="48" height="49" viewBox="0 0 48 49" fill="none" xmlns="http://www.w3.org/2000/svg">
<path d="M38.3727 24.6774C38.3727 23.6721 38.2768 22.6345 38.1169 21.6616H24.2708V27.4013H32.2011C31.8813 29.2497 30.8261 30.8711 29.2592 31.9088L33.9918 35.6379C36.7739 33.0113 38.3727 29.1848 38.3727 24.6774Z" fill="#4280EF"/>
<path d="M24.2708 39.205C28.2359 39.205 31.5616 37.8755 33.9919 35.6055L29.2592 31.9088C27.9482 32.8168 26.2534 33.3356 24.2708 33.3356C20.4335 33.3356 17.2038 30.709 16.0206 27.2068L11.1601 31.0008C13.6543 36.0271 18.7067 39.205 24.2708 39.205Z" fill="#34A353"/>
<path d="M16.0206 27.1744C15.4131 25.326 15.4131 23.3155 16.0206 21.4671L11.1601 17.6406C9.08157 21.8562 9.08157 26.8176 11.1601 31.0008L16.0206 27.1744Z" fill="#F6B704"/>
<path d="M24.2708 15.3382C26.3493 15.3058 28.3958 16.1165 29.8988 17.5758L34.0878 13.2953C31.4337 10.766 27.9162 9.40399 24.2708 9.43642C18.7067 9.43642 13.6543 12.6143 11.1601 17.6406L16.0206 21.4671C17.2038 17.9325 20.4335 15.3382 24.2708 15.3382Z" fill="#E54335"/>
</svg>
