<svg width="258" height="190" viewBox="0 0 258 190" fill="none" xmlns="http://www.w3.org/2000/svg">
<path fill-rule="evenodd" clip-rule="evenodd" d="M160.378 20.785L86.2641 0C84.1706 6.01031 76.8168 31.4823 89.613 62.6013L151.361 90.7863C153.955 91.5222 156.522 92.3749 159.04 93.3571C154.349 81.5387 145.038 50.767 160.378 20.785ZM81.7923 90.3252C69.0657 77.3666 34.9767 66.4514 21.3756 62.4782C31.7569 60.2737 56.1004 57.1153 88.8908 65.7754L137.187 87.8175C111.681 84.2264 87.0658 89.1535 81.7923 90.3252ZM73.7727 112.8L9.72885 83.1936L14.8666 76.9749L78.9137 103.71L73.7727 112.8ZM81.3948 101.297C86.5855 100.223 125.504 92.4413 151.195 94.2131L150.295 93.7993C118.687 84.9307 82.0405 93.5119 81.6297 93.6098C81.0203 93.7583 80.3876 93.5625 79.9735 93.1171C72.2222 84.6497 53.8843 76.8296 38.6336 71.4194L19.6364 75.5189L81.3948 101.297ZM7.63185 85.7329L72.1957 115.582L65.7429 126.99L0 94.9711L7.63185 85.7329ZM205.762 39.4665L224.395 44.542C213.351 49.6585 183.161 65.2448 169.683 88.3228C169.578 88.4096 169.472 88.4949 169.366 88.5802C169.26 88.6654 169.154 88.7507 169.05 88.8376C175.43 65.2574 193.407 48.5499 205.762 39.4665ZM164.24 95.808C168.659 67.0514 189.978 47.0623 204.047 36.7724C204.219 36.5577 204.444 36.3998 204.696 36.2924C208.293 33.6962 211.39 31.7223 213.52 30.459L134.093 3.91317L126.713 8.05689L163.217 18.293C163.69 18.4257 164.078 18.7542 164.273 19.1869C164.469 19.6227 164.449 20.1154 164.22 20.5323C145.995 54.0359 160.57 89.1692 163.68 95.8838C163.698 95.8814 163.715 95.8789 163.733 95.8763L163.764 95.8715L163.79 95.8674L163.863 95.8554C163.986 95.8349 164.109 95.8144 164.24 95.808ZM232.392 61.1674C220.834 64.0857 195.752 71.2899 177.523 82.742C186.633 71.2362 199.721 61.9412 210.529 55.5361L232.392 61.1674ZM234.104 75.8063L215.408 69.4391C203.334 73.3965 188.942 79.0783 177.788 86.3836C196.481 77.3413 220.503 75.8347 234.104 75.8063ZM77.4992 112.86L82.3188 104.342C88.8047 103.028 136.233 93.7519 159.328 98.4136C158.646 99.3201 158.162 100.391 157.827 101.544L77.4992 112.86ZM176.083 108.227L226.777 100.726H226.787L255.049 96.5439L248.964 87.3405L173.399 101.405C174.814 103.843 175.592 106.527 176.083 108.227ZM243.588 79.211L247.07 84.4728L171.296 98.5716C170.67 97.9367 169.958 97.3872 169.166 96.9356C169.451 96.1997 169.746 95.467 170.074 94.7437C193.566 77.2371 237.066 78.8573 243.588 79.211ZM157.337 110.501C157.181 109.12 157.049 107.014 157.238 104.822L75.5381 116.331L69.5524 126.911L157.337 110.501ZM66.4024 130.673C66.4124 130.673 66.422 130.679 66.432 130.679C66.538 130.679 66.6474 130.67 66.7534 130.654L159.503 113.318C160.381 113.154 160.964 112.351 160.818 111.508C160.421 109.218 159.884 102.693 162.15 100.043C162.753 99.3359 163.498 98.9885 164.489 98.9506C169.255 98.8085 171.349 103.72 172.903 109.101L172.927 109.185L172.927 109.185C173.082 109.717 173.213 110.168 173.33 110.504C173.585 111.237 174.347 111.685 175.155 111.565L226.906 103.906L254.91 111.189L122.758 159.009L31.1671 129.154L50.6713 123.2L65.6803 130.509C65.9055 130.616 66.154 130.67 66.4024 130.673ZM27.5501 153.681L120.098 187.993C112.088 176.5 117.425 165.683 120.178 161.501L27.5501 131.308V153.681ZM125.723 189.715C113.142 176.725 122.095 164.145 123.805 162.004L255.059 114.509C253.267 117.168 251.558 120.762 251.558 124.915C251.555 129.356 253.489 133.541 257.302 137.378L125.723 189.715Z" fill="white"/>
</svg>
