<svg width="540" height="379" viewBox="0 0 540 379" fill="none" xmlns="http://www.w3.org/2000/svg">
<path d="M44.9598 275.351H62.4528C65.8188 275.351 68.4538 276.184 70.3578 277.85C72.2618 279.516 73.2138 281.93 73.2138 285.092C73.2138 286.69 72.8398 288.152 72.0918 289.478C71.3438 290.77 70.3238 291.773 69.0318 292.487C70.7998 293.133 72.1258 294.119 73.0098 295.445C73.8938 296.737 74.3358 298.437 74.3358 300.545C74.3358 302.687 73.8428 304.557 72.8568 306.155C71.9048 307.719 70.5788 308.926 68.8788 309.776C67.2128 310.592 65.3598 311 63.3198 311H44.9598V275.351ZM60.9738 289.835C62.3338 289.835 63.4048 289.495 64.1868 288.815C64.9688 288.135 65.3598 287.047 65.3598 285.551C65.3598 283.919 64.9688 282.797 64.1868 282.185C63.4388 281.573 62.2828 281.267 60.7188 281.267H52.7118V289.835H60.9738ZM61.4328 305.084C63.0988 305.084 64.3568 304.761 65.2068 304.115C66.0908 303.435 66.5328 302.262 66.5328 300.596C66.5328 298.896 66.0738 297.672 65.1558 296.924C64.2718 296.176 62.9458 295.802 61.1778 295.802H52.7118V305.084H61.4328ZM82.5106 282.746C81.3206 282.746 80.3176 282.355 79.5016 281.573C78.6856 280.791 78.2776 279.805 78.2776 278.615C78.2776 277.459 78.6856 276.49 79.5016 275.708C80.3176 274.892 81.3206 274.484 82.5106 274.484C83.7006 274.484 84.7036 274.892 85.5196 275.708C86.3356 276.49 86.7436 277.459 86.7436 278.615C86.7436 279.805 86.3356 280.791 85.5196 281.573C84.7036 282.355 83.7006 282.746 82.5106 282.746ZM78.6346 286.52H86.3866V311H78.6346V286.52ZM108.25 311.765C106.346 311.765 104.646 311.493 103.15 310.949C101.688 310.405 100.328 309.538 99.0697 308.348V311H91.6237V273.311H99.3247V288.713C100.413 287.761 101.739 287.03 103.303 286.52C104.867 286.01 106.516 285.755 108.25 285.755C110.8 285.755 113.044 286.316 114.982 287.438C116.954 288.526 118.484 290.056 119.572 292.028C120.66 294 121.204 296.261 121.204 298.811C121.204 301.395 120.66 303.673 119.572 305.645C118.484 307.583 116.954 309.096 114.982 310.184C113.044 311.238 110.8 311.765 108.25 311.765ZM106.312 305.798C108.386 305.798 110.069 305.169 111.361 303.911C112.687 302.619 113.35 300.919 113.35 298.811C113.35 296.703 112.687 295.003 111.361 293.711C110.069 292.419 108.386 291.773 106.312 291.773C104.714 291.773 103.269 292.215 101.977 293.099C100.719 293.949 99.8347 295.071 99.3247 296.465V301.106C99.8687 302.534 100.77 303.673 102.028 304.523C103.286 305.373 104.714 305.798 106.312 305.798ZM125.141 273.311H132.842V311H125.141V273.311ZM142.023 282.746C140.833 282.746 139.83 282.355 139.014 281.573C138.198 280.791 137.79 279.805 137.79 278.615C137.79 277.459 138.198 276.49 139.014 275.708C139.83 274.892 140.833 274.484 142.023 274.484C143.213 274.484 144.216 274.892 145.032 275.708C145.848 276.49 146.256 277.459 146.256 278.615C146.256 279.805 145.848 280.791 145.032 281.573C144.216 282.355 143.213 282.746 142.023 282.746ZM138.147 286.52H145.899V311H138.147V286.52ZM164.855 311.765C161.897 311.765 159.296 311.238 157.052 310.184C154.842 309.096 153.125 307.583 151.901 305.645C150.711 303.673 150.116 301.378 150.116 298.76C150.116 296.21 150.711 293.949 151.901 291.977C153.125 290.005 154.842 288.475 157.052 287.387C159.296 286.299 161.897 285.755 164.855 285.755C167.779 285.755 170.346 286.299 172.556 287.387C174.8 288.475 176.517 290.005 177.707 291.977C178.931 293.949 179.543 296.21 179.543 298.76C179.543 301.378 178.931 303.673 177.707 305.645C176.517 307.583 174.817 309.096 172.607 310.184C170.397 311.238 167.813 311.765 164.855 311.765ZM164.855 305.747C166.929 305.747 168.578 305.118 169.802 303.86C171.026 302.568 171.638 300.868 171.638 298.76C171.638 296.584 171.026 294.884 169.802 293.66C168.612 292.402 166.963 291.773 164.855 291.773C162.747 291.773 161.081 292.402 159.857 293.66C158.633 294.884 158.021 296.584 158.021 298.76C158.021 300.868 158.633 302.568 159.857 303.86C161.115 305.118 162.781 305.747 164.855 305.747ZM192.961 311.765C190.105 311.765 187.929 310.983 186.433 309.419C184.971 307.821 184.24 305.611 184.24 302.789V292.079H180.67V286.52H184.24V279.176H191.941V286.52H197.704V292.079H191.941V301.769C191.941 303.197 192.213 304.234 192.757 304.88C193.301 305.492 194.27 305.798 195.664 305.798C196.786 305.798 197.857 305.526 198.877 304.982V310.745C197.313 311.425 195.341 311.765 192.961 311.765ZM216.109 311.765C211.417 311.765 207.728 310.643 205.042 308.399C202.356 306.121 201.013 302.942 201.013 298.862C201.013 294.816 202.203 291.62 204.583 289.274C206.997 286.928 210.431 285.755 214.885 285.755C217.809 285.755 220.291 286.299 222.331 287.387C224.371 288.475 225.918 289.988 226.972 291.926C228.026 293.83 228.553 295.989 228.553 298.403V301.514H208.357C208.901 304.642 211.825 306.206 217.129 306.206C218.693 306.206 220.308 306.07 221.974 305.798C223.64 305.526 225.085 305.152 226.309 304.676V310.082C225.119 310.592 223.589 311 221.719 311.306C219.849 311.612 217.979 311.765 216.109 311.765ZM221.26 296.516C221.158 294.884 220.546 293.626 219.424 292.742C218.302 291.824 216.755 291.365 214.783 291.365C212.845 291.365 211.315 291.824 210.193 292.742C209.071 293.66 208.459 294.918 208.357 296.516H221.26ZM245.876 311.765C241.456 311.765 237.937 310.643 235.319 308.399C232.701 306.121 231.392 302.925 231.392 298.811C231.392 294.697 232.701 291.501 235.319 289.223C237.971 286.911 241.507 285.755 245.927 285.755C249.939 285.755 253.135 286.503 255.515 287.999V294.068C254.427 293.286 253.152 292.708 251.69 292.334C250.262 291.96 248.749 291.773 247.151 291.773C244.771 291.773 242.867 292.351 241.439 293.507C240.011 294.663 239.297 296.431 239.297 298.811C239.297 301.191 239.994 302.959 241.388 304.115C242.816 305.237 244.72 305.798 247.1 305.798C250.398 305.798 253.305 304.999 255.821 303.401V309.419C253.305 310.983 249.99 311.765 245.876 311.765ZM268.584 311.765C265.592 311.765 263.144 311.017 261.24 309.521C259.37 307.991 258.435 305.917 258.435 303.299C258.435 300.579 259.336 298.471 261.138 296.975C262.94 295.445 265.49 294.68 268.788 294.68C270.25 294.68 271.644 294.833 272.97 295.139C274.296 295.445 275.469 295.87 276.489 296.414V295.802C276.489 294.272 275.945 293.15 274.857 292.436C273.769 291.722 272.103 291.365 269.859 291.365C266.867 291.365 264.113 291.926 261.597 293.048V287.438C262.685 286.962 264.096 286.571 265.83 286.265C267.564 285.925 269.298 285.755 271.032 285.755C275.452 285.755 278.75 286.673 280.926 288.509C283.102 290.311 284.19 292.844 284.19 296.108V311H276.948V308.756C274.874 310.762 272.086 311.765 268.584 311.765ZM270.675 306.665C271.933 306.665 273.072 306.427 274.092 305.951C275.112 305.475 275.911 304.812 276.489 303.962V301.514C274.755 300.358 272.851 299.78 270.777 299.78C269.349 299.78 268.244 300.086 267.462 300.698C266.714 301.276 266.34 302.143 266.34 303.299C266.34 304.387 266.714 305.22 267.462 305.798C268.21 306.376 269.281 306.665 270.675 306.665ZM306.318 275.351H321.312C325.358 275.351 328.588 276.422 331.002 278.564C333.416 280.672 334.623 283.613 334.623 287.387C334.623 291.263 333.416 294.238 331.002 296.312C328.622 298.386 325.392 299.423 321.312 299.423H314.07V311H306.318V275.351ZM320.19 292.946C324.576 292.946 326.769 291.093 326.769 287.387C326.769 285.313 326.174 283.868 324.984 283.052C323.828 282.236 322.23 281.828 320.19 281.828H314.07V292.946H320.19ZM342.026 282.746C340.836 282.746 339.833 282.355 339.017 281.573C338.201 280.791 337.793 279.805 337.793 278.615C337.793 277.459 338.201 276.49 339.017 275.708C339.833 274.892 340.836 274.484 342.026 274.484C343.216 274.484 344.219 274.892 345.035 275.708C345.851 276.49 346.259 277.459 346.259 278.615C346.259 279.805 345.851 280.791 345.035 281.573C344.219 282.355 343.216 282.746 342.026 282.746ZM338.15 286.52H345.902V311H338.15V286.52ZM350.119 306.563L362.461 292.079H350.476V286.52H372.406V291.008L360.166 305.441H372.814V311H350.119V306.563ZM384.521 311.765C381.529 311.765 379.081 311.017 377.177 309.521C375.307 307.991 374.372 305.917 374.372 303.299C374.372 300.579 375.273 298.471 377.075 296.975C378.877 295.445 381.427 294.68 384.725 294.68C386.187 294.68 387.581 294.833 388.907 295.139C390.233 295.445 391.406 295.87 392.426 296.414V295.802C392.426 294.272 391.882 293.15 390.794 292.436C389.706 291.722 388.04 291.365 385.796 291.365C382.804 291.365 380.05 291.926 377.534 293.048V287.438C378.622 286.962 380.033 286.571 381.767 286.265C383.501 285.925 385.235 285.755 386.969 285.755C391.389 285.755 394.687 286.673 396.863 288.509C399.039 290.311 400.127 292.844 400.127 296.108V311H392.885V308.756C390.811 310.762 388.023 311.765 384.521 311.765ZM386.612 306.665C387.87 306.665 389.009 306.427 390.029 305.951C391.049 305.475 391.848 304.812 392.426 303.962V301.514C390.692 300.358 388.788 299.78 386.714 299.78C385.286 299.78 384.181 300.086 383.399 300.698C382.651 301.276 382.277 302.143 382.277 303.299C382.277 304.387 382.651 305.22 383.399 305.798C384.147 306.376 385.218 306.665 386.612 306.665ZM404.825 286.52H412.271V290.039C413.257 288.849 414.634 287.948 416.402 287.336C418.17 286.69 420.176 286.367 422.42 286.367V292.232C420.074 292.232 418 292.589 416.198 293.303C414.43 294.017 413.206 295.105 412.526 296.567V311H404.825V286.52ZM425.293 286.52H432.739V289.529C433.861 288.271 435.187 287.336 436.717 286.724C438.281 286.078 439.913 285.755 441.613 285.755C444.945 285.755 447.427 286.656 449.059 288.458C450.725 290.226 451.558 292.623 451.558 295.649V311H443.857V296.516C443.857 293.354 442.395 291.773 439.471 291.773C438.179 291.773 436.972 292.096 435.85 292.742C434.728 293.354 433.776 294.272 432.994 295.496V311H425.293V286.52ZM460.503 282.746C459.313 282.746 458.31 282.355 457.494 281.573C456.678 280.791 456.27 279.805 456.27 278.615C456.27 277.459 456.678 276.49 457.494 275.708C458.31 274.892 459.313 274.484 460.503 274.484C461.693 274.484 462.696 274.892 463.512 275.708C464.328 276.49 464.736 277.459 464.736 278.615C464.736 279.805 464.328 280.791 463.512 281.573C462.696 282.355 461.693 282.746 460.503 282.746ZM456.627 286.52H464.379V311H456.627V286.52ZM469.616 273.311H477.317V296.873L486.242 286.52H495.167L484.814 298.454L496.442 311H487.517L477.317 299.984V311H469.616V273.311Z" fill="#141414"/>
<path d="M148.622 119.243C162.224 123.216 196.313 134.131 209.039 147.09C214.313 145.918 238.928 140.991 264.434 144.582L216.138 122.54C183.347 113.88 159.004 117.038 148.622 119.243Z" fill="black"/>
<path d="M136.976 139.958L201.02 169.565L206.161 160.475L142.114 133.74L136.976 139.958Z" fill="black"/>
<path d="M208.642 158.062C213.832 156.988 252.751 149.206 278.442 150.978L277.541 150.564C245.934 141.695 209.287 150.277 208.877 150.375C208.267 150.523 207.634 150.327 207.22 149.882C199.469 141.414 181.131 133.594 165.88 128.184L146.883 132.284L208.642 158.062Z" fill="black"/>
<path d="M199.443 172.347L134.879 142.498L127.247 151.736L192.99 183.755L199.443 172.347Z" fill="black"/>
<path d="M287.625 77.5497L213.511 56.7648C211.417 62.7751 204.064 88.247 216.86 119.366L278.608 147.551C281.202 148.287 283.769 149.14 286.286 150.122C281.596 138.303 272.285 107.532 287.625 77.5497Z" fill="black"/>
<path d="M351.642 101.307L333.009 96.2312C320.654 105.315 302.677 122.022 296.297 145.602C296.505 145.429 296.721 145.261 296.93 145.087C310.408 122.01 340.598 106.423 351.642 101.307Z" fill="black"/>
<path d="M291.487 152.573C295.906 123.816 317.225 103.827 331.294 93.5372C331.466 93.3224 331.691 93.1645 331.943 93.0571C335.54 90.461 338.637 88.487 340.767 87.2237L261.34 60.6779L253.96 64.8216L290.464 75.0578C290.937 75.1904 291.325 75.5189 291.52 75.9516C291.716 76.3875 291.696 76.8801 291.467 77.297C273.242 110.801 287.817 145.934 290.927 152.649C291.113 152.623 291.292 152.582 291.487 152.573Z" fill="black"/>
<path d="M304.77 139.507C322.999 128.055 348.081 120.85 359.639 117.932L337.776 112.301C326.968 118.706 313.879 128.001 304.77 139.507Z" fill="black"/>
<path d="M361.351 132.571L342.655 126.204C330.581 130.161 316.189 135.843 305.035 143.148C323.728 134.106 347.75 132.6 361.351 132.571Z" fill="black"/>
<path d="M209.566 161.107L204.746 169.625L285.074 158.308C285.409 157.156 285.892 156.085 286.575 155.178C263.48 150.517 216.052 159.793 209.566 161.107Z" fill="black"/>
<path d="M303.329 164.991L354.024 157.49H354.034L382.296 153.309L376.211 144.105L300.646 158.169C302.061 160.608 302.839 163.292 303.329 164.991Z" fill="black"/>
<path d="M374.316 141.237L370.835 135.976C364.313 135.622 320.813 134.002 297.321 151.508C296.993 152.232 296.698 152.964 296.413 153.7C297.205 154.152 297.917 154.701 298.543 155.336L374.316 141.237Z" fill="black"/>
<path d="M284.584 167.265C284.428 165.885 284.296 163.779 284.485 161.587L202.785 173.096L196.799 183.676L284.584 167.265Z" fill="black"/>
<path d="M193.679 187.444C193.669 187.444 193.659 187.438 193.649 187.438C193.401 187.434 193.152 187.381 192.927 187.273L177.918 179.965L158.414 185.918L250.005 215.774L382.157 167.954L354.153 160.671L302.402 168.33C301.594 168.45 300.832 168.001 300.577 167.269C300.454 166.915 300.315 166.435 300.15 165.866C298.596 160.484 296.502 155.573 291.736 155.715C290.745 155.753 290 156.101 289.397 156.808C287.131 159.458 287.668 165.983 288.065 168.273C288.211 169.116 287.628 169.918 286.75 170.083L194 187.419C193.894 187.434 193.785 187.444 193.679 187.444Z" fill="black"/>
<path d="M154.797 210.446L247.345 244.758C239.335 233.265 244.672 222.448 247.424 218.266L154.797 188.072V210.446Z" fill="black"/>
<path d="M251.052 218.768C249.342 220.91 240.389 233.489 252.97 246.479L384.549 194.143C380.736 190.305 378.802 186.121 378.805 181.68C378.805 177.527 380.514 173.933 382.306 171.273L251.052 218.768Z" fill="black"/>
</svg>
