<svg width="201" height="51" viewBox="0 0 201 51" fill="none" xmlns="http://www.w3.org/2000/svg">
<path d="M59.6633 28V11.2H66.4073C68.1513 11.2 69.4793 11.608 70.3913 12.424C71.3193 13.224 71.7833 14.256 71.7833 15.52C71.7833 16.576 71.4953 17.424 70.9193 18.064C70.3593 18.688 69.6713 19.112 68.8553 19.336C69.8153 19.528 70.6073 20.008 71.2313 20.776C71.8553 21.528 72.1673 22.408 72.1673 23.416C72.1673 24.744 71.6873 25.84 70.7273 26.704C69.7673 27.568 68.4073 28 66.6473 28H59.6633ZM62.7353 18.256H65.9513C66.8153 18.256 67.4793 18.056 67.9433 17.656C68.4073 17.256 68.6393 16.688 68.6393 15.952C68.6393 15.248 68.4073 14.696 67.9433 14.296C67.4953 13.88 66.8153 13.672 65.9033 13.672H62.7353V18.256ZM62.7353 25.504H66.1673C67.0793 25.504 67.7833 25.296 68.2793 24.88C68.7913 24.448 69.0473 23.848 69.0473 23.08C69.0473 22.296 68.7833 21.68 68.2553 21.232C67.7273 20.784 67.0153 20.56 66.1193 20.56H62.7353V25.504ZM76.0953 14.248C75.5353 14.248 75.0713 14.08 74.7033 13.744C74.3513 13.408 74.1753 12.984 74.1753 12.472C74.1753 11.96 74.3513 11.544 74.7033 11.224C75.0713 10.888 75.5353 10.72 76.0953 10.72C76.6553 10.72 77.1113 10.888 77.4633 11.224C77.8313 11.544 78.0153 11.96 78.0153 12.472C78.0153 12.984 77.8313 13.408 77.4633 13.744C77.1113 14.08 76.6553 14.248 76.0953 14.248ZM74.5593 28V16.096H77.6313V28H74.5593ZM87.601 28.288C86.705 28.288 85.921 28.12 85.249 27.784C84.577 27.448 84.033 26.976 83.617 26.368L83.281 28H80.545V10.72H83.617V17.8C84.001 17.272 84.505 16.808 85.129 16.408C85.769 16.008 86.593 15.808 87.601 15.808C88.721 15.808 89.721 16.08 90.601 16.624C91.481 17.168 92.177 17.912 92.689 18.856C93.201 19.8 93.457 20.872 93.457 22.072C93.457 23.272 93.201 24.344 92.689 25.288C92.177 26.216 91.481 26.952 90.601 27.496C89.721 28.024 88.721 28.288 87.601 28.288ZM86.953 25.6C87.929 25.6 88.737 25.272 89.377 24.616C90.017 23.96 90.337 23.112 90.337 22.072C90.337 21.032 90.017 20.176 89.377 19.504C88.737 18.832 87.929 18.496 86.953 18.496C85.961 18.496 85.145 18.832 84.505 19.504C83.881 20.16 83.569 21.008 83.569 22.048C83.569 23.088 83.881 23.944 84.505 24.616C85.145 25.272 85.961 25.6 86.953 25.6ZM95.9086 28V10.72H98.9806V28H95.9086ZM103.483 14.248C102.923 14.248 102.459 14.08 102.091 13.744C101.739 13.408 101.563 12.984 101.563 12.472C101.563 11.96 101.739 11.544 102.091 11.224C102.459 10.888 102.923 10.72 103.483 10.72C104.043 10.72 104.499 10.888 104.851 11.224C105.219 11.544 105.403 11.96 105.403 12.472C105.403 12.984 105.219 13.408 104.851 13.744C104.499 14.08 104.043 14.248 103.483 14.248ZM101.947 28V16.096H105.019V28H101.947ZM113.645 28.288C112.493 28.288 111.453 28.024 110.525 27.496C109.613 26.968 108.885 26.24 108.341 25.312C107.813 24.368 107.549 23.28 107.549 22.048C107.549 20.816 107.821 19.736 108.365 18.808C108.909 17.864 109.637 17.128 110.549 16.6C111.477 16.072 112.517 15.808 113.669 15.808C114.805 15.808 115.829 16.072 116.741 16.6C117.669 17.128 118.397 17.864 118.925 18.808C119.469 19.736 119.741 20.816 119.741 22.048C119.741 23.28 119.469 24.368 118.925 25.312C118.397 26.24 117.669 26.968 116.741 27.496C115.813 28.024 114.781 28.288 113.645 28.288ZM113.645 25.624C114.445 25.624 115.141 25.328 115.733 24.736C116.325 24.128 116.621 23.232 116.621 22.048C116.621 20.864 116.325 19.976 115.733 19.384C115.141 18.776 114.453 18.472 113.669 18.472C112.853 18.472 112.149 18.776 111.557 19.384C110.981 19.976 110.693 20.864 110.693 22.048C110.693 23.232 110.981 24.128 111.557 24.736C112.149 25.328 112.845 25.624 113.645 25.624ZM127.03 28C125.782 28 124.782 27.696 124.03 27.088C123.278 26.48 122.902 25.4 122.902 23.848V18.664H120.862V16.096H122.902L123.262 12.904H125.974V16.096H129.19V18.664H125.974V23.872C125.974 24.448 126.094 24.848 126.334 25.072C126.59 25.28 127.022 25.384 127.63 25.384H129.118V28H127.03ZM137.014 28.288C135.814 28.288 134.75 28.032 133.822 27.52C132.894 27.008 132.166 26.288 131.638 25.36C131.11 24.432 130.846 23.36 130.846 22.144C130.846 20.912 131.102 19.816 131.614 18.856C132.142 17.896 132.862 17.152 133.774 16.624C134.702 16.08 135.79 15.808 137.038 15.808C138.206 15.808 139.238 16.064 140.134 16.576C141.03 17.088 141.726 17.792 142.222 18.688C142.734 19.568 142.99 20.552 142.99 21.64C142.99 21.816 142.982 22 142.966 22.192C142.966 22.384 142.958 22.584 142.942 22.792H133.894C133.958 23.72 134.278 24.448 134.854 24.976C135.446 25.504 136.158 25.768 136.99 25.768C137.614 25.768 138.134 25.632 138.55 25.36C138.982 25.072 139.302 24.704 139.51 24.256H142.63C142.406 25.008 142.03 25.696 141.502 26.32C140.99 26.928 140.35 27.408 139.582 27.76C138.83 28.112 137.974 28.288 137.014 28.288ZM137.038 18.304C136.286 18.304 135.622 18.52 135.046 18.952C134.47 19.368 134.102 20.008 133.942 20.872H139.87C139.822 20.088 139.534 19.464 139.006 19C138.478 18.536 137.822 18.304 137.038 18.304ZM151.113 28.288C149.897 28.288 148.825 28.024 147.897 27.496C146.969 26.968 146.233 26.232 145.689 25.288C145.161 24.344 144.897 23.264 144.897 22.048C144.897 20.832 145.161 19.752 145.689 18.808C146.233 17.864 146.969 17.128 147.897 16.6C148.825 16.072 149.897 15.808 151.113 15.808C152.633 15.808 153.913 16.208 154.953 17.008C155.993 17.792 156.657 18.88 156.945 20.272H153.705C153.545 19.696 153.225 19.248 152.745 18.928C152.281 18.592 151.729 18.424 151.089 18.424C150.241 18.424 149.521 18.744 148.929 19.384C148.337 20.024 148.041 20.912 148.041 22.048C148.041 23.184 148.337 24.072 148.929 24.712C149.521 25.352 150.241 25.672 151.089 25.672C151.729 25.672 152.281 25.512 152.745 25.192C153.225 24.872 153.545 24.416 153.705 23.824H156.945C156.657 25.168 155.993 26.248 154.953 27.064C153.913 27.88 152.633 28.288 151.113 28.288ZM163.483 28.288C162.459 28.288 161.619 28.128 160.963 27.808C160.307 27.472 159.819 27.032 159.499 26.488C159.179 25.944 159.019 25.344 159.019 24.688C159.019 23.584 159.451 22.688 160.315 22C161.179 21.312 162.475 20.968 164.203 20.968H167.227V20.68C167.227 19.864 166.995 19.264 166.531 18.88C166.067 18.496 165.491 18.304 164.803 18.304C164.179 18.304 163.635 18.456 163.171 18.76C162.707 19.048 162.419 19.48 162.307 20.056H159.307C159.387 19.192 159.675 18.44 160.171 17.8C160.683 17.16 161.339 16.672 162.139 16.336C162.939 15.984 163.835 15.808 164.827 15.808C166.523 15.808 167.859 16.232 168.835 17.08C169.811 17.928 170.299 19.128 170.299 20.68V28H167.683L167.395 26.08C167.043 26.72 166.547 27.248 165.907 27.664C165.283 28.08 164.475 28.288 163.483 28.288ZM164.179 25.888C165.059 25.888 165.739 25.6 166.219 25.024C166.715 24.448 167.027 23.736 167.155 22.888H164.539C163.723 22.888 163.139 23.04 162.787 23.344C162.435 23.632 162.259 23.992 162.259 24.424C162.259 24.888 162.435 25.248 162.787 25.504C163.139 25.76 163.603 25.888 164.179 25.888ZM172.938 28V16.096H175.674L175.962 18.328C176.394 17.56 176.978 16.952 177.714 16.504C178.466 16.04 179.346 15.808 180.354 15.808V19.048H179.49C178.818 19.048 178.218 19.152 177.69 19.36C177.162 19.568 176.746 19.928 176.442 20.44C176.154 20.952 176.01 21.664 176.01 22.576V28H172.938ZM183.817 14.248C183.257 14.248 182.793 14.08 182.425 13.744C182.073 13.408 181.897 12.984 181.897 12.472C181.897 11.96 182.073 11.544 182.425 11.224C182.793 10.888 183.257 10.72 183.817 10.72C184.377 10.72 184.833 10.888 185.185 11.224C185.553 11.544 185.737 11.96 185.737 12.472C185.737 12.984 185.553 13.408 185.185 13.744C184.833 14.08 184.377 14.248 183.817 14.248ZM182.281 28V16.096H185.353V28H182.281ZM193.979 28.288C192.827 28.288 191.787 28.024 190.859 27.496C189.947 26.968 189.219 26.24 188.675 25.312C188.147 24.368 187.883 23.28 187.883 22.048C187.883 20.816 188.155 19.736 188.699 18.808C189.243 17.864 189.971 17.128 190.883 16.6C191.811 16.072 192.851 15.808 194.003 15.808C195.139 15.808 196.163 16.072 197.075 16.6C198.003 17.128 198.731 17.864 199.259 18.808C199.803 19.736 200.075 20.816 200.075 22.048C200.075 23.28 199.803 24.368 199.259 25.312C198.731 26.24 198.003 26.968 197.075 27.496C196.147 28.024 195.115 28.288 193.979 28.288ZM193.979 25.624C194.779 25.624 195.475 25.328 196.067 24.736C196.659 24.128 196.955 23.232 196.955 22.048C196.955 20.864 196.659 19.976 196.067 19.384C195.475 18.776 194.787 18.472 194.003 18.472C193.187 18.472 192.483 18.776 191.891 19.384C191.315 19.976 191.027 20.864 191.027 22.048C191.027 23.232 191.315 24.128 191.891 24.736C192.483 25.328 193.179 25.624 193.979 25.624Z" fill="white"/>
<path d="M9.59781 16.0457C12.0785 16.5803 18.296 18.0491 20.6172 19.7929C21.579 19.6352 26.0685 18.9722 30.7206 19.4554L21.9119 16.4894C15.9313 15.324 11.4913 15.749 9.59781 16.0457Z" fill="white"/>
<path d="M7.47357 18.8334L19.1545 22.8174L20.0922 21.5942L8.41065 17.9966L7.47357 18.8334Z" fill="white"/>
<path d="M20.5447 21.2695C21.4914 21.125 28.5897 20.0778 33.2757 20.3163L33.1113 20.2606C27.3464 19.0672 20.6625 20.2219 20.5876 20.2351C20.4764 20.255 20.361 20.2287 20.2855 20.1688C18.8717 19.0294 15.5271 17.977 12.7455 17.249L9.28061 17.8007L20.5447 21.2695Z" fill="white"/>
<path d="M18.8669 23.192L7.0911 19.1753L5.69913 20.4184L17.69 24.7271L18.8669 23.192Z" fill="white"/>
<path d="M34.9505 10.4356L21.4328 7.63867C21.051 8.44745 19.7097 11.8751 22.0436 16.0626L33.3059 19.8553C33.7789 19.9543 34.2472 20.0691 34.7063 20.2012C33.8508 18.6109 32.1526 14.4701 34.9505 10.4356Z" fill="white"/>
<path d="M46.6265 13.6322L43.2281 12.9492C40.9745 14.1715 37.6957 16.4198 36.5321 19.5928C36.5702 19.5694 36.6095 19.5469 36.6475 19.5235C39.1059 16.4181 44.6122 14.3207 46.6265 13.6322Z" fill="white"/>
<path d="M35.6549 20.5308C36.4609 16.6612 40.3493 13.9714 42.9152 12.5867C42.9466 12.5578 42.9876 12.5366 43.0336 12.5221C43.6897 12.1728 44.2546 11.9072 44.6431 11.7372L30.1564 8.16504L28.8103 8.72264L35.4682 10.1001C35.5546 10.1179 35.6253 10.1621 35.6609 10.2203C35.6966 10.279 35.6929 10.3453 35.6513 10.4014C32.3271 14.9098 34.9855 19.6375 35.5528 20.541C35.5866 20.5376 35.6193 20.5321 35.6549 20.5308Z" fill="white"/>
<path d="M38.0776 18.7728C41.4023 17.2317 45.9771 16.2623 48.085 15.8696L44.0976 15.1118C42.1262 15.9737 39.739 17.2245 38.0776 18.7728Z" fill="white"/>
<path d="M48.3974 17.8392L44.9874 16.9824C42.7852 17.5149 40.1602 18.2795 38.1259 19.2625C41.5353 18.0458 45.9167 17.843 48.3974 17.8392Z" fill="white"/>
<path d="M20.7132 21.6792L19.8342 22.8254L34.4852 21.3026C34.5463 21.1475 34.6345 21.0034 34.7589 20.8815C30.5467 20.2542 21.8962 21.5024 20.7132 21.6792Z" fill="white"/>
<path d="M37.8148 22.2021L47.0609 21.1928H47.0628L52.2175 20.6301L51.1076 19.3916L37.3254 21.2841C37.5834 21.6122 37.7254 21.9735 37.8148 22.2021Z" fill="white"/>
<path d="M50.7621 19.0057L50.1271 18.2976C48.9375 18.25 41.0036 18.032 36.7189 20.3878C36.659 20.4851 36.6052 20.5837 36.5533 20.6827C36.6977 20.7435 36.8276 20.8175 36.9418 20.9029L50.7621 19.0057Z" fill="white"/>
<path d="M34.3958 22.5078C34.3674 22.3221 34.3433 22.0386 34.3777 21.7437L19.4765 23.2924L18.3848 24.7161L34.3958 22.5078Z" fill="white"/>
<path d="M17.8157 25.2236C17.8138 25.2236 17.8121 25.2227 17.8103 25.2227C17.765 25.2223 17.7196 25.2151 17.6786 25.2006L14.9411 24.2172L11.3837 25.0183L28.0889 29.0358L52.1922 22.6009L47.0846 21.6208L37.6456 22.6515C37.4982 22.6676 37.3592 22.6073 37.3127 22.5087C37.2904 22.4611 37.265 22.3965 37.2348 22.32C36.9515 21.5958 36.5696 20.9349 35.7002 20.954C35.5196 20.9591 35.3836 21.0059 35.2737 21.1011C34.8604 21.4576 34.9583 22.3357 35.0308 22.6438C35.0574 22.7573 34.9511 22.8652 34.791 22.8873L17.8743 25.2202C17.855 25.2223 17.835 25.2236 17.8157 25.2236Z" fill="white"/>
<path d="M10.724 28.3188L27.6038 32.936C26.1429 31.3894 27.1162 29.9338 27.6183 29.3711L10.724 25.3081V28.3188Z" fill="white"/>
<path d="M28.2799 29.4385C27.9681 29.7267 26.335 31.4194 28.6297 33.1675L52.6284 26.1248C51.933 25.6084 51.5802 25.0453 51.5808 24.4477C51.5808 23.8889 51.8925 23.4052 52.2194 23.0474L28.2799 29.4385Z" fill="white"/>
</svg>
